<svg width="750" height="285" viewBox="0 0 750 285" fill="none" xmlns="http://www.w3.org/2000/svg">
<path fill-rule="evenodd" clip-rule="evenodd" d="M223.387 120C231.043 159.519 226.61 196.113 174.818 222.217L165 249.5C223.457 231.009 245.975 195.025 250.209 150.158L284.887 136.562L223.387 120Z" fill="#808080"/>
<path fill-rule="evenodd" clip-rule="evenodd" d="M223.387 120C231.349 159.237 226.643 195.842 174.887 222L177.645 234.5C177.645 234.5 195.832 229.629 218.905 205.996C241.887 182.274 241.887 138.616 241.887 138.616L223.387 120Z" fill="#999999"/>
<path fill-rule="evenodd" clip-rule="evenodd" d="M61.5 164.5C53.8438 124.981 58.2772 88.387 110.069 62.2827L119.887 35C61.4297 53.4906 38.9115 89.4747 34.6781 134.342L0 147.938L61.5 164.5Z" fill="#808080"/>
<path fill-rule="evenodd" clip-rule="evenodd" d="M61.5 164.5C53.5376 125.263 58.2443 88.6583 110 62.5L107.242 50C107.242 50 89.0554 54.8709 65.9825 78.5036C43 102.226 43 145.884 43 145.884L61.5 164.5Z" fill="#999999"/>
<path fill-rule="evenodd" clip-rule="evenodd" d="M165.5 223.387C125.981 231.043 89.387 226.61 63.2827 174.818L36 165C54.4906 223.457 90.4747 245.976 135.342 250.209L148.938 284.887L165.5 223.387Z" fill="#003E7E"/>
<path fill-rule="evenodd" clip-rule="evenodd" d="M165.5 223.387C126.263 231.35 89.6583 226.643 63.5 174.887L51 177.645C51 177.645 55.8709 195.832 79.5036 218.905C103.226 241.887 146.884 241.887 146.884 241.887L165.5 223.387Z" fill="#004F6B"/>
<path fill-rule="evenodd" clip-rule="evenodd" d="M120 61.5C159.519 53.8438 196.113 58.2772 222.217 110.069L249.5 119.887C231.009 61.4297 195.025 38.9115 150.158 34.6781L136.562 0L120 61.5Z" fill="#003E7E"/>
<path fill-rule="evenodd" clip-rule="evenodd" d="M120 61.5C159.237 53.5376 195.842 58.2443 222 110L234.5 107.242C234.5 107.242 229.629 89.0554 205.996 65.9825C182.274 43 138.616 43 138.616 43L120 61.5Z" fill="#004F6B"/>
<path d="M142 126V149.607L166 158L142 126Z" fill="#808080"/>
<path d="M142 126V149.607L118 158L142 126Z" fill="#999999"/>
<path d="M618.173 165.745C614.736 165.745 611.643 165.058 608.893 163.683C606.144 162.171 604.769 159.971 604.769 157.084V39.1275H574.455C571.843 39.1275 569.781 37.8902 568.268 35.4156C566.756 32.941 566 30.1227 566 26.9606C566 24.0736 566.687 21.3928 568.062 18.9181C569.437 16.306 571.568 15 574.455 15H661.685C664.71 15 666.841 16.306 668.078 18.9181C669.453 21.3928 670.14 24.0736 670.14 26.9606C670.14 30.1227 669.384 32.941 667.872 35.4156C666.497 37.8902 664.435 39.1275 661.685 39.1275H631.577V157.084C631.577 159.971 630.134 162.171 627.247 163.683C624.497 165.058 621.473 165.745 618.173 165.745Z" fill="#003E7E"/>
<path fill-rule="evenodd" clip-rule="evenodd" d="M482.803 158.555C484.131 158.252 486.28 156.109 487.163 154.151C487.573 153.251 488.152 151.565 488.424 150.467L488.927 148.389L491.175 148.408C492.42 148.418 494.227 148.276 494.349 148.121C494.836 147.535 494.372 145.92 494.591 142.031C494.713 139.831 495.008 118.099 495.268 93.7332C496.47 56.572 495.907 33.4168 495.907 33.4168C495.907 33.4168 493.436 33.3421 492.633 33.1584C492.633 33.1584 492.504 35.2461 492.461 38.8983C492.348 48.5846 492.498 68.8961 491.839 95.3548L491.385 141.375L490.242 141.247C488.998 141.118 489.097 141.316 487.814 136.981C486.318 131.938 482.141 129.937 479.121 132.781C476.588 135.157 474.927 140.723 475.155 146.07C475.482 153.659 478.999 159.427 482.803 158.555ZM480.865 151.464C479.926 150.945 478.903 148.853 478.66 147.004C478.417 145.155 478.749 142.053 479.347 140.446C479.904 138.958 480.936 138.102 482.201 138.113C484.891 138.136 486.469 143.062 485.318 147.847C484.48 151.299 482.861 152.621 480.865 151.464Z" fill="#808080"/>
<path fill-rule="evenodd" clip-rule="evenodd" d="M482.824 50.6561C484.153 50.3465 486.302 48.1597 487.185 46.1619C487.595 45.2428 488.174 43.5231 488.446 42.4024L488.948 40.2811L491.197 40.3014C492.442 40.3114 493.701 40.3801 493.823 40.221C494.31 39.6236 494.126 37.3894 494.345 33.4206C494.89 33.4757 491.407 33.1238 491.407 33.1238L491.071 33.1569C489.828 33.0258 488.995 34.588 487.836 28.6406C486.34 23.4937 482.163 21.4517 479.143 24.3537C476.61 26.7783 474.949 32.4591 475.177 37.9158C475.504 45.6596 479.021 51.5459 482.824 50.6564V50.6561ZM480.886 43.4199C479.948 42.8902 478.924 40.7553 478.682 38.8685C478.439 36.9811 478.77 33.8155 479.369 32.1761C479.925 30.657 480.958 29.7837 482.223 29.7947C484.913 29.818 486.491 34.8453 485.339 39.7286C484.502 43.2509 482.883 44.6005 480.886 43.4199Z" fill="#808080"/>
<path fill-rule="evenodd" clip-rule="evenodd" d="M536.584 22.0945C535.259 22.4116 533.13 24.5894 532.267 26.5695C531.866 27.4805 531.303 29.1835 531.042 30.2924L530.56 32.3912L528.312 32.3908C527.067 32.3912 525.262 32.5497 525.141 32.7078C524.659 33.3019 525.139 34.9256 524.959 38.8463C524.858 41.0641 524.778 62.9643 524.758 87.5177C523.923 124.973 524.714 148.299 524.714 148.299C524.714 148.299 527.185 148.354 527.99 148.532C527.99 148.532 528.099 146.427 528.106 142.747C528.123 132.986 527.773 112.521 528.171 85.8544L528.171 39.4798L529.316 39.5988C530.56 39.7176 530.46 39.5195 531.785 43.8758C533.331 48.945 537.528 50.9254 540.519 48.0341C543.029 45.6183 544.635 39.995 544.354 34.609C543.952 26.9656 540.379 21.1837 536.584 22.0945ZM538.592 29.2229C539.535 29.7379 540.579 31.8371 540.84 33.698C541.101 35.5596 540.8 38.6881 540.218 40.312C539.676 41.8167 538.652 42.6879 537.387 42.6879C534.697 42.6878 533.07 37.7375 534.174 32.9059C534.978 29.4208 536.584 28.0743 538.592 29.2229Z" fill="#808080"/>
<path fill-rule="evenodd" clip-rule="evenodd" d="M536.068 131.182C534.742 131.5 532.614 133.677 531.751 135.657C531.349 136.568 530.787 138.271 530.526 139.38L530.044 141.479L527.795 141.478C526.55 141.479 525.291 141.421 525.17 141.58C524.688 142.174 524.894 144.378 524.714 148.299C524.169 148.249 527.655 148.567 527.655 148.567L527.99 148.531C529.235 148.65 530.053 147.1 531.269 152.963C532.815 158.032 537.011 160.012 540.003 157.121C542.512 154.705 544.119 149.082 543.838 143.696C543.436 136.053 539.862 130.271 536.068 131.181V131.182ZM538.075 138.311C539.019 138.826 540.063 140.925 540.324 142.786C540.585 144.647 540.284 147.776 539.702 149.4C539.16 150.905 538.136 151.776 536.871 151.776C534.18 151.776 532.554 146.825 533.658 141.994C534.461 138.509 536.068 137.162 538.075 138.311Z" fill="#808080"/>
<path fill-rule="evenodd" clip-rule="evenodd" d="M513.213 24.855C516.064 26.023 518.515 28.6067 519.683 31.7564C520.567 34.1633 520.538 39.4369 519.626 41.773C518.657 44.2151 516.976 46.4094 515.066 47.6484C513.67 48.5683 513.327 48.9931 513.185 49.8781C513.099 50.4796 513.014 54.621 513.014 59.0093L513.014 130.373L514.553 131.187C516.406 132.142 518.743 135.045 519.598 137.451C520.425 139.716 520.624 143.68 520.054 146.122C518.828 151.325 514.81 154.758 510.078 154.652C506.544 154.546 503.266 151.927 501.699 147.892C501.015 146.158 500.929 145.486 500.901 142.548C500.901 139.646 501.015 138.903 501.642 137.204C502.696 134.407 504.235 132.461 506.344 131.187L508.169 130.125L508.112 57.8769L508.026 48.9578L506.886 48.3209C503.893 46.5867 502.041 43.932 501.157 40.1448C499.418 32.4645 503.637 25.032 510.107 24.5009C511.304 24.4302 512.472 24.5364 513.213 24.855ZM507.941 31.4025C504.862 33.3491 504.834 40.2512 507.883 42.1268C509.366 43.0824 512.102 42.9763 513.299 41.9497C514.981 40.5341 515.437 39.437 515.437 36.8178C515.437 34.1633 514.81 32.6414 513.185 31.4025C511.988 30.4826 509.366 30.4826 507.941 31.4025ZM507.912 137.274C506.173 138.478 505.746 139.539 505.746 142.442C505.746 144.742 505.831 145.096 506.63 146.335C507.143 147.113 508.083 147.963 508.853 148.352C510.021 148.989 510.335 149.025 511.503 148.635C513.242 148.034 514.325 147.043 515.009 145.379C515.665 143.751 515.75 141.168 515.18 139.787C514.61 138.442 513.242 136.92 512.273 136.531C511.104 136.071 509.138 136.389 507.912 137.274Z" fill="#808080"/>
<path d="M353.856 269.677C349.724 269.677 346.172 269.063 343.202 267.836C340.231 266.545 337.939 265.092 336.325 263.477C334.775 261.799 334 260.378 334 259.216C334 258.699 334.129 258.15 334.387 257.569C334.71 256.988 335.098 256.536 335.55 256.213C336.002 255.826 336.454 255.632 336.906 255.632C337.552 255.632 338.197 256.052 338.843 256.891C339.553 257.666 340.457 258.602 341.555 259.7C342.717 260.733 344.235 261.669 346.108 262.509C347.98 263.284 350.434 263.671 353.469 263.671C356.504 263.671 359.087 263.187 361.218 262.218C363.349 261.185 364.995 259.7 366.158 257.763C367.32 255.761 367.901 253.275 367.901 250.304C367.901 247.205 367.32 244.719 366.158 242.846C364.995 240.974 363.445 239.424 361.508 238.197C359.636 236.97 357.569 235.937 355.309 235.097C353.049 234.258 350.757 233.386 348.432 232.482C346.172 231.578 344.073 230.48 342.136 229.189C340.199 227.833 338.649 226.089 337.487 223.959C336.325 221.763 335.743 218.986 335.743 215.629C335.743 212.142 336.389 209.268 337.681 207.008C338.972 204.683 340.619 202.875 342.621 201.584C344.687 200.292 346.915 199.388 349.304 198.872C351.693 198.291 354.018 198 356.278 198C358.086 198 359.926 198.161 361.799 198.484C363.736 198.743 365.512 199.13 367.126 199.647C368.741 200.163 370.032 200.809 371.001 201.584C372.034 202.294 372.55 203.101 372.55 204.005C372.55 204.393 372.421 204.877 372.163 205.458C371.969 205.975 371.679 206.459 371.291 206.911C370.904 207.363 370.387 207.589 369.741 207.589C369.16 207.589 368.353 207.299 367.32 206.717C366.287 206.072 364.866 205.458 363.058 204.877C361.315 204.231 359.022 203.908 356.181 203.908C353.856 203.908 351.596 204.231 349.401 204.877C347.27 205.523 345.526 206.685 344.17 208.364C342.814 209.978 342.136 212.206 342.136 215.047C342.136 217.63 342.717 219.729 343.88 221.343C345.107 222.893 346.656 224.152 348.529 225.121C350.466 226.089 352.565 226.993 354.825 227.833C357.085 228.608 359.345 229.512 361.605 230.545C363.93 231.514 366.028 232.773 367.901 234.323C369.838 235.808 371.388 237.777 372.55 240.231C373.713 242.685 374.294 245.849 374.294 249.723C374.294 254.308 373.422 258.086 371.679 261.056C369.935 263.962 367.514 266.125 364.414 267.546C361.379 268.966 357.86 269.677 353.856 269.677Z" fill="#808080"/>
<path d="M405.109 269.58C401.364 269.58 397.974 268.902 394.939 267.546C391.904 266.19 389.482 263.994 387.674 260.959C385.866 257.924 384.962 253.888 384.962 248.852V218.922C384.962 213.885 385.866 209.849 387.674 206.814C389.482 203.779 391.871 201.584 394.842 200.228C397.877 198.872 401.299 198.194 405.109 198.194C408.919 198.194 412.341 198.872 415.376 200.228C418.411 201.584 420.833 203.779 422.641 206.814C424.449 209.849 425.353 213.885 425.353 218.922V248.852C425.353 253.888 424.449 257.924 422.641 260.959C420.833 263.994 418.411 266.19 415.376 267.546C412.341 268.902 408.919 269.58 405.109 269.58ZM405.109 263.671C409.435 263.671 412.793 262.477 415.182 260.087C417.636 257.698 418.863 253.953 418.863 248.852V218.922C418.863 213.82 417.636 210.075 415.182 207.686C412.793 205.297 409.435 204.102 405.109 204.102C400.783 204.102 397.425 205.297 395.036 207.686C392.646 210.075 391.452 213.82 391.452 218.922V248.852C391.452 253.953 392.646 257.698 395.036 260.087C397.425 262.477 400.783 263.671 405.109 263.671Z" fill="#808080"/>
<path d="M442.181 268.999C441.47 268.999 440.792 268.805 440.147 268.417C439.565 267.965 439.275 267.32 439.275 266.48V200.615C439.275 199.776 439.598 199.162 440.243 198.775C440.889 198.387 441.632 198.194 442.471 198.194C443.246 198.194 443.956 198.387 444.602 198.775C445.312 199.162 445.668 199.776 445.668 200.615V263.09H473.273C474.048 263.09 474.597 263.413 474.919 264.059C475.242 264.64 475.404 265.286 475.404 265.996C475.404 266.771 475.242 267.481 474.919 268.127C474.597 268.708 474.048 268.999 473.273 268.999H442.181Z" fill="#808080"/>
<path d="M501.697 269.58C497.887 269.58 494.465 268.902 491.43 267.546C488.395 266.19 485.973 263.994 484.165 260.959C482.357 257.924 481.453 253.888 481.453 248.852V200.615C481.453 199.776 481.776 199.162 482.422 198.775C483.067 198.387 483.81 198.194 484.649 198.194C485.489 198.194 486.231 198.387 486.877 198.775C487.523 199.162 487.846 199.776 487.846 200.615V248.852C487.846 253.953 489.073 257.698 491.526 260.087C493.98 262.477 497.37 263.671 501.697 263.671C506.088 263.671 509.51 262.477 511.964 260.087C514.418 257.698 515.645 253.953 515.645 248.852V200.615C515.645 199.776 515.967 199.162 516.613 198.775C517.259 198.387 518.002 198.194 518.841 198.194C519.68 198.194 520.423 198.387 521.069 198.775C521.714 199.162 522.037 199.776 522.037 200.615V248.852C522.037 253.888 521.133 257.924 519.325 260.959C517.582 263.994 515.16 266.19 512.061 267.546C508.961 268.902 505.507 269.58 501.697 269.58Z" fill="#808080"/>
<path d="M552.207 268.999C551.368 268.999 550.625 268.805 549.979 268.417C549.334 267.965 549.011 267.32 549.011 266.48V204.199H532.738C531.963 204.199 531.35 203.908 530.898 203.327C530.446 202.682 530.22 201.971 530.22 201.196C530.22 200.422 530.446 199.743 530.898 199.162C531.35 198.517 531.963 198.194 532.738 198.194H571.579C572.419 198.194 573.032 198.517 573.419 199.162C573.807 199.743 574.001 200.389 574.001 201.1C574.001 201.874 573.807 202.585 573.419 203.23C573.032 203.876 572.419 204.199 571.579 204.199H555.403V266.48C555.403 267.32 555.048 267.965 554.338 268.417C553.692 268.805 552.982 268.999 552.207 268.999Z" fill="#808080"/>
<path d="M585.775 268.999C584.936 268.999 584.193 268.805 583.547 268.417C582.902 267.965 582.579 267.32 582.579 266.48V200.615C582.579 199.776 582.902 199.162 583.547 198.775C584.193 198.387 584.936 198.194 585.775 198.194C586.55 198.194 587.26 198.387 587.906 198.775C588.616 199.162 588.972 199.776 588.972 200.615V266.48C588.972 267.32 588.616 267.965 587.906 268.417C587.26 268.805 586.55 268.999 585.775 268.999Z" fill="#808080"/>
<path d="M623.044 269.58C619.299 269.58 615.909 268.902 612.874 267.546C609.839 266.19 607.418 263.994 605.61 260.959C603.801 257.924 602.897 253.888 602.897 248.852V218.922C602.897 213.885 603.801 209.849 605.61 206.814C607.418 203.779 609.807 201.584 612.777 200.228C615.812 198.872 619.234 198.194 623.044 198.194C626.854 198.194 630.277 198.872 633.312 200.228C636.346 201.584 638.768 203.779 640.576 206.814C642.384 209.849 643.288 213.885 643.288 218.922V248.852C643.288 253.888 642.384 257.924 640.576 260.959C638.768 263.994 636.346 266.19 633.312 267.546C630.277 268.902 626.854 269.58 623.044 269.58ZM623.044 263.671C627.371 263.671 630.729 262.477 633.118 260.087C635.572 257.698 636.798 253.953 636.798 248.852V218.922C636.798 213.82 635.572 210.075 633.118 207.686C630.729 205.297 627.371 204.102 623.044 204.102C618.718 204.102 615.36 205.297 612.971 207.686C610.582 210.075 609.387 213.82 609.387 218.922V248.852C609.387 253.953 610.582 257.698 612.971 260.087C615.36 262.477 618.718 263.671 623.044 263.671Z" fill="#808080"/>
<path d="M660.407 268.999C659.567 268.999 658.825 268.805 658.179 268.417C657.533 267.965 657.21 267.32 657.21 266.48V200.615C657.21 199.711 657.533 199.098 658.179 198.775C658.825 198.387 659.567 198.194 660.407 198.194C661.182 198.194 661.86 198.42 662.441 198.872C663.022 199.259 663.571 199.808 664.087 200.518C664.604 201.164 665.056 201.907 665.443 202.746L691.596 254.179V200.615C691.596 199.776 691.918 199.162 692.564 198.775C693.21 198.387 693.953 198.194 694.792 198.194C695.567 198.194 696.277 198.387 696.923 198.775C697.633 199.162 697.988 199.776 697.988 200.615V266.48C697.988 267.32 697.633 267.965 696.923 268.417C696.277 268.805 695.567 268.999 694.792 268.999C693.888 268.999 693.048 268.643 692.274 267.933C691.563 267.158 690.982 266.286 690.53 265.318L663.603 212.916V266.48C663.603 267.32 663.248 267.965 662.538 268.417C661.892 268.805 661.182 268.999 660.407 268.999Z" fill="#808080"/>
<path d="M728.716 269.677C724.584 269.677 721.032 269.063 718.062 267.836C715.092 266.545 712.799 265.092 711.185 263.477C709.635 261.799 708.86 260.378 708.86 259.216C708.86 258.699 708.989 258.15 709.248 257.569C709.57 256.988 709.958 256.536 710.41 256.213C710.862 255.826 711.314 255.632 711.766 255.632C712.412 255.632 713.057 256.052 713.703 256.891C714.413 257.666 715.318 258.602 716.415 259.7C717.578 260.733 719.095 261.669 720.968 262.509C722.84 263.284 725.294 263.671 728.329 263.671C731.364 263.671 733.947 263.187 736.078 262.218C738.209 261.185 739.855 259.7 741.018 257.763C742.18 255.761 742.761 253.275 742.761 250.304C742.761 247.205 742.18 244.719 741.018 242.846C739.855 240.974 738.306 239.424 736.368 238.197C734.496 236.97 732.429 235.937 730.169 235.097C727.909 234.258 725.617 233.386 723.292 232.482C721.032 231.578 718.934 230.48 716.996 229.189C715.059 227.833 713.509 226.089 712.347 223.959C711.185 221.763 710.604 218.986 710.604 215.629C710.604 212.142 711.249 209.268 712.541 207.008C713.832 204.683 715.479 202.875 717.481 201.584C719.547 200.292 721.775 199.388 724.164 198.872C726.553 198.291 728.878 198 731.138 198C732.946 198 734.786 198.161 736.659 198.484C738.596 198.743 740.372 199.13 741.986 199.647C743.601 200.163 744.892 200.809 745.861 201.584C746.894 202.294 747.411 203.101 747.411 204.005C747.411 204.393 747.281 204.877 747.023 205.458C746.829 205.975 746.539 206.459 746.151 206.911C745.764 207.363 745.247 207.589 744.602 207.589C744.02 207.589 743.213 207.299 742.18 206.717C741.147 206.072 739.726 205.458 737.918 204.877C736.175 204.231 733.882 203.908 731.041 203.908C728.716 203.908 726.456 204.231 724.261 204.877C722.13 205.523 720.387 206.685 719.03 208.364C717.674 209.978 716.996 212.206 716.996 215.047C716.996 217.63 717.578 219.729 718.74 221.343C719.967 222.893 721.517 224.152 723.389 225.121C725.326 226.089 727.425 226.993 729.685 227.833C731.945 228.608 734.205 229.512 736.465 230.545C738.79 231.514 740.889 232.773 742.761 234.323C744.698 235.808 746.248 237.777 747.411 240.231C748.573 242.685 749.154 245.849 749.154 249.723C749.154 254.308 748.282 258.086 746.539 261.056C744.795 263.962 742.374 266.125 739.274 267.546C736.239 268.966 732.72 269.677 728.716 269.677Z" fill="#808080"/>
<path d="M387.986 161.038C384.789 161.038 381.792 160.372 378.996 159.04C376.332 157.575 375 155.511 375 152.847V23.3907C375 20.5938 376.199 18.5294 378.596 17.1976C380.993 15.7325 383.59 15 386.387 15H456.11C459.04 15 461.105 16.1987 462.303 18.596C463.635 20.9933 464.301 23.5239 464.301 26.1876C464.301 29.3841 463.569 32.1144 462.103 34.3785C460.772 36.6427 458.774 37.7748 456.11 37.7748H400.971V77.7305H431.537C434.201 77.7305 436.199 78.796 437.531 80.9269C438.996 82.9247 439.728 85.3221 439.728 88.119C439.728 90.3831 439.062 92.6473 437.73 94.9114C436.532 97.0424 434.467 98.1079 431.537 98.1079H400.971V152.847C400.971 155.511 399.639 157.575 396.976 159.04C394.312 160.372 391.315 161.038 387.986 161.038Z" fill="#003E7E"/>
</svg>
